<svg width="562" height="448" viewBox="0 0 562 448" fill="none" xmlns="http://www.w3.org/2000/svg">
<path d="M510 156.6C500.5 125.7 499.1 87.8 500.2 58.5C501.3 28 477.5 0 445.5 0H116.7C84.6 0 60.9 28.1 62 58.5C63 87.8 61.7 125.7 52.2 156.6C42.6 187.6 26.5 207.2 0 209.7V238.2C26.4 240.7 42.6 260.3 52.2 291.3C61.7 322.2 63.1 360.1 62 389.4C60.9 419.9 84.7 447.9 116.7 447.9H445.4C477.5 447.9 501.2 419.8 500.1 389.4C499.1 360.1 500.4 322.2 509.9 291.3C519.5 260.3 535.6 240.7 562 238.2V209.7C535.7 207.2 519.5 187.6 510 156.6Z" fill="#8316A9"/>
<path d="M287.9 343.3H190V105H287.4C330.7 105 359.1 128.4 359.1 164.4C359.1 189.7 340 212.3 315.6 216.2V217.5C348.8 221.1 371.1 244.1 371.1 275.8C371.1 317.9 339.8 343.3 287.9 343.3ZM321.2 169.6C321.2 147.5 305.6 135.3 278.2 135.3H227.8V206.5H270.3C303.1 206.4 321.2 193.2 321.2 169.6ZM277.9 234.6H227.8V313H280.1C314.3 313 332.4 299.3 332.4 273.5C332.4 247.8 313.8 234.6 277.9 234.6Z" fill="white"/>
</svg>
