<svg width="450" height="450" viewBox="0 0 450 450" fill="none" xmlns="http://www.w3.org/2000/svg">
<path d="M435.938 21.25C435.938 16.781 431.895 13.4269 427.5 14.303L315 36.9583C311.748 37.622 309.375 40.5247 309.375 43.9053V180.173C309.375 204.421 284.15 223.448 253.125 223.448C222.1 223.448 196.875 204.421 196.875 180.969C196.875 157.518 222.1 138.491 253.125 138.491C269.912 138.491 285.029 144.066 295.312 152.916V43.9053C295.312 33.7812 302.432 25.0643 312.275 23.0731L424.775 0.419641C437.783 -2.20872 450 7.84276 450 21.25V151.854C450 176.102 424.775 195.129 393.75 195.129C362.725 195.129 337.5 176.102 337.5 152.65C337.5 129.199 362.725 110.172 393.75 110.172C410.537 110.172 425.654 115.747 435.938 124.597V21.25ZM253.125 152.65C240.381 152.65 229.307 156.544 221.748 162.296C214.277 167.96 210.938 174.686 210.938 180.969C210.938 187.253 214.277 193.978 221.748 199.642C229.307 205.394 240.381 209.288 253.125 209.288C265.869 209.288 276.943 205.394 284.502 199.642C291.973 193.978 295.312 187.253 295.312 180.173C295.312 174.686 291.973 167.96 284.502 162.296C276.943 156.544 265.869 152.65 253.125 152.65ZM393.75 124.331C381.006 124.331 369.932 128.225 362.373 133.977C354.902 139.641 351.562 146.367 351.562 152.65C351.562 158.934 354.902 165.659 362.373 171.323C369.932 177.075 381.006 180.969 393.75 180.969C406.494 180.969 417.568 177.075 425.127 171.323C432.598 165.659 435.938 158.934 435.938 151.854C435.938 146.367 432.598 139.641 425.127 133.977C417.568 128.225 406.494 124.331 393.75 124.331ZM426.621 238.315L396.738 322.564H433.564C442.617 322.564 450 329.998 450 339.113C450 344.246 447.627 348.317 443.672 352.211L321.768 447.699C319.834 449.204 317.461 450 315 450C307.441 450 302.08 442.389 304.629 435.133L334.512 350.883H297.246C288.369 350.883 281.25 343.715 281.25 334.777C281.25 329.91 283.535 324.423 286.611 322.122L409.395 225.837C411.328 224.244 413.789 222.651 416.25 222.651C423.809 222.651 429.17 231.059 426.621 238.315ZM295.312 334.777C295.312 335.839 295.4 336.724 297.246 336.724H344.531C346.816 336.724 348.926 337.874 350.244 339.733C351.562 341.591 351.914 343.981 351.123 346.193L321.416 430L434.971 341.06C435.586 340.618 435.938 339.91 435.938 339.113C435.938 337.786 434.883 336.724 433.564 336.724H386.719C384.434 336.724 381.533 335.573 381.006 333.715C378.896 331.857 379.336 329.467 380.127 327.255L409.834 243.537L296.016 333.273C295.576 333.627 295.312 334.246 295.312 334.777ZM175.781 357.963C175.781 385.309 153.721 407.521 126.562 407.521C99.4043 407.521 77.3438 385.309 77.3438 357.963C77.3438 330.618 99.4043 308.405 126.562 308.405C153.721 308.405 175.781 330.618 175.781 357.963ZM126.562 393.362C145.986 393.362 161.719 377.521 161.719 357.963C161.719 338.405 145.986 322.564 126.562 322.564C107.139 322.564 91.4062 338.405 91.4062 357.963C91.4062 377.521 107.139 393.362 126.562 393.362ZM183.516 253.271L189.844 265.926H210.938C234.229 265.926 253.125 284.953 253.125 308.405V407.521C253.125 430.973 234.229 450 210.938 450H42.1875C18.8877 450 0 430.973 0 407.521V308.405C0 284.953 18.8877 265.926 42.1875 265.926H62.4902L69.5742 253.271C74.3379 243.625 84.0762 236.811 94.7461 236.811H158.379C169.014 236.811 178.77 243.625 183.516 253.271ZM42.1875 280.086C26.6572 280.086 14.0625 292.741 14.0625 308.405V407.521C14.0625 423.185 26.6572 435.84 42.1875 435.84H210.938C226.494 435.84 239.062 423.185 239.062 407.521V308.405C239.062 292.741 226.494 280.086 210.938 280.086H181.143L170.947 259.555C168.574 254.776 163.74 250.97 158.379 250.97H94.7461C89.3848 250.97 84.5332 254.776 82.1514 259.555L71.9736 280.086H42.1875ZM52.4883 2.2471C72.501 -1.11136 92.9004 5.46751 107.227 19.9137L112.5 24.4182L116.982 19.9137C132.1 5.46751 152.49 -1.11136 172.529 2.2471C202.764 7.32948 225 33.7193 225 64.6312V67.2065C225 85.5696 217.441 103.092 204.082 115.659L124.629 190.261C121.377 193.359 116.982 195.129 112.5 195.129C108.018 195.129 103.623 193.359 100.371 190.261L20.9092 115.659C7.57354 103.092 0 85.5696 0 67.2065V64.6312C0 33.7193 22.2012 7.32948 52.4883 2.2471ZM97.2949 29.9227C86.1592 18.7102 70.3301 13.6039 54.7998 16.2146C31.2891 20.1615 13.2715 40.6397 13.2715 64.6312V67.2065C13.2715 81.6581 20.0215 95.4813 30.5068 105.304L109.951 179.907C110.654 180.615 111.533 180.969 111.709 180.969C113.467 180.969 114.346 180.615 115.049 179.907L194.502 105.304C204.961 95.4813 210.146 81.6581 210.146 67.2065V64.6312C210.146 40.6397 193.711 20.1615 170.156 16.2146C153.896 13.6039 138.076 18.7102 127.705 29.9227L111.709 45.2416L97.2949 29.9227Z" fill="#07B6D5"/>
</svg>
