<svg width="450" height="450" viewBox="0 0 450 450" fill="none" xmlns="http://www.w3.org/2000/svg">
<path d="M287.67 287.085V273.165C287.765 261.328 289.186 251.384 291.932 243.335C294.678 235.286 299.034 228.136 305 221.886C310.966 215.542 318.778 209.15 328.438 202.71C336.676 197.028 343.4 191.489 348.608 186.091C353.816 180.598 357.604 174.869 359.972 168.903C362.434 162.938 363.665 156.403 363.665 149.301C363.665 138.222 361.013 128.468 355.71 120.04C350.502 111.517 343.4 104.888 334.403 100.153C325.502 95.3239 315.464 92.9091 304.29 92.9091C293.116 92.9091 282.983 95.4186 273.892 100.438C264.801 105.456 257.509 112.511 252.017 121.602C246.525 130.693 243.636 141.394 243.352 153.705H225.312C225.597 138.648 229.195 125.343 236.108 113.79C243.116 102.237 252.538 93.2405 264.375 86.8011C276.212 80.2671 289.517 77 304.29 77C319.157 77 332.367 80.1723 343.92 86.5171C355.473 92.7671 364.517 101.384 371.051 112.369C377.68 123.354 380.994 135.854 380.994 149.869C380.994 158.676 379.574 166.773 376.733 174.159C373.892 181.451 369.441 188.364 363.381 194.898C357.32 201.432 349.46 208.061 339.801 214.784C330.994 220.845 324.034 226.621 318.92 232.114C313.901 237.606 310.35 243.572 308.267 250.011C306.184 256.451 305.142 264.169 305.142 273.165V287.085H287.67Z M296.761 373.733C292.5 373.733 288.854 372.265 285.824 369.33C282.888 366.299 281.42 362.653 281.42 358.392C281.42 354.225 282.888 350.627 285.824 347.597C288.854 344.566 292.5 343.051 296.761 343.051C301.023 343.051 304.621 344.566 307.557 347.597C310.587 350.627 312.102 354.225 312.102 358.392C312.102 361.233 311.392 363.837 309.972 366.205C308.646 368.477 306.799 370.324 304.432 371.744C302.159 373.07 299.602 373.733 296.761 373.733Z M162.324 177.568V163.648H144.852V177.568C144.852 186.564 143.811 194.282 141.727 200.722C139.644 207.161 136.093 213.127 131.074 218.619C125.96 224.112 119 229.888 110.193 235.949C100.534 242.672 92.6743 249.301 86.6137 255.835C80.5531 262.369 76.1024 269.282 73.2614 276.574C70.4205 283.96 69.0001 292.057 69.0001 300.864C69.0001 314.879 72.3145 327.379 78.9432 338.364C85.4773 349.348 94.5209 357.966 106.074 364.216C117.627 370.561 130.837 373.733 145.705 373.733C160.477 373.733 173.782 370.466 185.619 363.932C197.457 357.492 206.879 348.496 213.886 336.943C220.799 325.39 224.398 312.085 224.682 297.028H206.642C206.358 309.339 203.47 320.04 197.977 329.131C192.485 338.222 185.193 345.276 176.102 350.295C167.011 355.314 156.879 357.824 145.705 357.824C134.53 357.824 124.492 355.409 115.591 350.579C106.595 345.845 99.4925 339.216 94.2841 330.693C88.9811 322.265 86.3296 312.511 86.3296 301.432C86.3296 294.329 87.5607 287.795 90.0228 281.829C92.3902 275.864 96.1781 270.134 101.386 264.642C106.595 259.244 113.318 253.704 121.557 248.023C131.216 241.583 139.028 235.191 144.994 228.847C150.96 222.597 155.316 215.447 158.063 207.398C160.809 199.348 162.229 189.405 162.324 177.568Z M164.171 81.4034C161.14 78.4677 157.494 76.9999 153.233 76.9999C150.392 76.9999 147.835 77.6628 145.563 78.9886C143.195 80.409 141.349 82.2556 140.023 84.5284C138.602 86.8958 137.892 89.4999 137.892 92.3409C137.892 96.5075 139.407 100.106 142.438 103.136C145.373 106.167 148.972 107.682 153.233 107.682C157.494 107.682 161.14 106.167 164.171 103.136C167.106 100.106 168.574 96.5075 168.574 92.3409C168.574 88.0795 167.106 84.4337 164.171 81.4034Z M50 0C22.3857 0 0 22.3857 0 50V400C0 427.614 22.3857 450 50 450H400C427.614 450 450 427.614 450 400V50C450 22.3857 427.614 0 400 0H50ZM50 15H400C419.33 15 435 30.6699 435 50V400C435 419.33 419.33 435 400 435H50C30.6699 435 15 419.33 15 400V50C15 30.6699 30.6699 15 50 15Z" fill="#6DA8FF"/>
</svg>
