<svg width="450" height="394" viewBox="0 0 450 394" fill="none" xmlns="http://www.w3.org/2000/svg">
<path d="M367.559 127.605C362.812 126.023 358.066 124.529 353.32 123.123C354.111 119.871 354.814 116.619 355.518 113.367C366.328 60.9846 359.209 18.8853 335.215 4.99873C312.1 -8.27264 274.395 5.52607 236.25 38.7484C232.471 42.0004 228.779 45.4281 225.264 48.8558C222.891 46.5706 220.43 44.2855 217.969 42.0883C177.979 6.58075 137.9 -8.36053 113.906 5.61396C90.8789 18.9732 84.0234 58.6115 93.6914 108.181C94.6582 113.103 95.7129 117.937 96.9434 122.859C91.3184 124.441 85.7812 126.199 80.5957 128.045C33.6621 144.304 0 169.968 0 196.511C0 223.932 35.8594 251.442 84.6387 268.141C88.5938 269.459 92.5488 270.778 96.5918 271.92C95.2734 277.194 94.1309 282.379 93.0762 287.74C83.8477 336.519 91.0547 375.191 114.082 388.462C137.812 402.173 177.715 388.111 216.562 354.097C219.639 351.373 222.715 348.56 225.791 345.572C229.658 349.351 233.701 352.955 237.744 356.47C275.361 388.814 312.539 401.909 335.479 388.638C359.209 374.927 366.943 333.355 356.924 282.731C356.133 278.864 355.254 274.908 354.287 270.866C357.1 270.075 359.824 269.196 362.549 268.317C413.262 251.53 450 224.372 450 196.511C450 169.88 415.371 144.04 367.559 127.605ZM248.643 52.9866C281.338 24.5103 311.836 13.3483 325.723 21.3462C340.576 29.8716 346.289 64.3244 336.973 109.588C336.357 112.576 335.742 115.476 334.951 118.377C315.439 113.982 295.664 110.818 275.801 109.06C264.375 92.7128 251.895 77.0684 238.359 62.3908C241.787 59.1389 245.127 56.0627 248.643 52.9866ZM146.953 242.126C151.436 249.772 156.006 257.418 160.84 264.889C147.129 263.395 133.506 261.198 120.059 258.297C123.926 245.641 128.76 232.546 134.385 219.186C138.428 226.921 142.559 234.567 146.953 242.126ZM120.322 136.394C132.979 133.582 146.426 131.296 160.4 129.539C155.742 136.834 151.172 144.304 146.865 151.863C142.559 159.333 138.34 166.98 134.385 174.714C128.848 161.618 124.189 148.787 120.322 136.394ZM144.404 196.95C150.205 184.821 156.533 172.956 163.213 161.267C169.893 149.578 177.1 138.24 184.658 127.078C197.842 126.111 211.289 125.584 225 125.584C238.711 125.584 252.246 126.111 265.342 127.078C272.812 138.152 279.932 149.49 286.699 161.091C293.467 172.693 299.795 184.558 305.771 196.599C299.883 208.727 293.555 220.68 286.787 232.458C280.107 244.147 272.988 255.485 265.518 266.735C252.422 267.702 238.799 268.141 225 268.141C211.201 268.141 197.842 267.702 184.922 266.91C177.275 255.748 170.068 244.323 163.301 232.633C156.533 220.944 150.293 209.079 144.404 196.95ZM303.135 241.95C307.617 234.215 311.836 226.393 315.967 218.483C321.592 231.227 326.514 244.147 330.82 257.418C317.197 260.495 303.398 262.868 289.512 264.45C294.258 257.067 298.74 249.508 303.135 241.95ZM315.791 174.714C311.66 166.98 307.441 159.245 303.047 151.687C298.74 144.216 294.258 136.834 289.6 129.539C303.75 131.296 317.285 133.669 329.941 136.57C325.898 149.578 321.152 162.234 315.791 174.714ZM225.176 75.838C234.404 85.8574 243.105 96.4042 251.191 107.303C233.789 106.512 216.299 106.512 198.896 107.303C207.51 95.9647 216.387 85.418 225.176 75.838ZM123.223 21.9615C137.988 13.3483 170.771 25.6528 205.312 56.2385C207.51 58.1721 209.707 60.2815 211.992 62.3908C198.369 77.0684 185.801 92.7128 174.287 109.06C154.424 110.818 134.736 113.894 115.225 118.201C114.082 113.718 113.115 109.148 112.148 104.578C103.887 62.0392 109.336 29.9595 123.223 21.9615ZM101.689 253.639C97.998 252.584 94.3945 251.442 90.791 250.211C72.0703 244.323 50.8008 235.006 35.4199 222.79C26.543 216.637 20.5664 207.145 18.8965 196.511C18.8965 180.427 46.6699 159.861 86.748 145.886C91.7578 144.128 96.8555 142.546 101.953 141.052C107.93 160.124 115.137 178.845 123.486 196.95C115.049 215.319 107.754 234.303 101.689 253.639ZM204.17 339.771C189.668 353.043 172.881 363.589 154.6 370.796C144.844 375.454 133.594 375.894 123.574 371.939C109.6 363.853 103.799 332.828 111.709 291.08C112.676 286.158 113.73 281.237 114.961 276.403C134.648 280.621 154.512 283.522 174.639 285.016C186.24 301.451 198.984 317.184 212.607 331.949C209.795 334.674 206.982 337.31 204.17 339.771ZM225.703 318.414C216.738 308.746 207.773 298.023 199.072 286.51C207.51 286.861 216.211 287.037 225 287.037C234.053 287.037 242.93 286.861 251.719 286.422C243.633 297.584 234.932 308.219 225.703 318.414ZM340.576 344.781C339.785 355.503 334.512 365.523 326.074 372.29C312.1 380.376 282.305 369.829 250.137 342.232C246.445 339.068 242.754 335.64 238.975 332.125C252.422 317.271 264.814 301.539 276.064 285.016C296.191 283.346 316.23 280.27 336.006 275.787C336.885 279.391 337.676 282.994 338.379 286.51C342.686 305.494 343.389 325.269 340.576 344.781ZM356.572 250.299C354.111 251.09 351.65 251.881 349.102 252.584C342.949 233.424 335.391 214.704 326.689 196.511C335.127 178.581 342.246 160.124 348.223 141.228C352.793 142.546 357.188 143.953 361.406 145.359C402.363 159.421 431.104 180.339 431.104 196.335C431.104 213.561 400.43 235.797 356.572 250.299ZM225 237.116C247.236 237.116 265.254 219.098 265.254 196.862C265.254 174.626 247.236 156.609 225 156.609C202.764 156.609 184.746 174.626 184.746 196.862C184.746 219.098 202.764 237.116 225 237.116Z" fill="#07B6D5"/>
</svg>
