<svg width="450" height="450" viewBox="0 0 450 450" fill="none" xmlns="http://www.w3.org/2000/svg">
<path d="M356.077 123.556C372.595 95.2271 365.419 58.4131 338.414 38.5337C309.504 17.252 268.815 23.4365 247.534 52.3462C226.252 81.2563 232.436 121.945 261.346 143.227C288.075 162.902 324.872 159.101 347.092 135.567L383.321 162.237C386.657 164.693 391.352 163.979 393.808 160.644C396.263 157.308 395.549 152.613 392.213 150.157L356.077 123.556ZM329.521 50.6138C351.76 66.9839 356.517 98.2827 340.147 120.521C323.776 142.76 292.478 147.517 270.239 131.146C248 114.776 243.243 83.4775 259.614 61.2388C275.984 39 307.283 34.2432 329.521 50.6138Z M0 100C0 44.7715 44.7715 0 100 0H350C405.229 0 450 44.7715 450 100V110C450 165.229 405.229 210 350 210H100C44.7715 210 0 165.229 0 110V100ZM15 105C15 154.706 55.2944 195 105 195H345C394.706 195 435 154.706 435 105C435 55.2944 394.706 15 345 15H105C55.2944 15 15 55.2944 15 105Z M265.775 337.09C270.95 341.094 270.95 348.906 265.775 352.91L214.868 392.288C208.296 397.372 198.75 392.687 198.75 384.378V305.622C198.75 297.313 208.296 292.628 214.868 297.712L265.775 337.09Z M0 290C0 262.386 22.3857 240 50 240H400C427.614 240 450 262.386 450 290V400C450 427.614 427.614 450 400 450H50C22.3857 450 0 427.614 0 400V290ZM15 290V400C15 419.33 30.6699 435 50 435H400C419.33 435 435 419.33 435 400V290C435 270.67 419.33 255 400 255H50C30.6699 255 15 270.67 15 290Z" fill="#07B6D5"/>
</svg>
